<svg id="calendar" xmlns="http://www.w3.org/2000/svg" width="15" height="15" viewBox="0 0 15 15">
  <path id="Path_20" data-name="Path 20" d="M13.066,1.172H11.719v-.7a.469.469,0,0,0-.937,0v.7H4.219v-.7a.469.469,0,0,0-.938,0v.7H1.934A1.936,1.936,0,0,0,0,3.105v9.961A1.936,1.936,0,0,0,1.934,15H13.066A1.936,1.936,0,0,0,15,13.066V3.105A1.936,1.936,0,0,0,13.066,1.172Zm1,11.895a1,1,0,0,1-1,1H1.934a1,1,0,0,1-1-1V5.3a.147.147,0,0,1,.146-.146H13.916a.147.147,0,0,1,.146.146Z" transform="translate(0)" fill="#1e1e1e"/>
</svg>
