<svg xmlns="http://www.w3.org/2000/svg" width="26" height="26" viewBox="0 0 26 26">
  <g id="camera" transform="translate(-56 -118)">
    <g id="Ellipse_15" data-name="Ellipse 15" transform="translate(56 118)" fill="#e06287" stroke="#f1f1f1" stroke-width="3">
      <circle cx="13" cy="13" r="13" stroke="none"/>
      <circle cx="13" cy="13" r="11.5" fill="none"/>
    </g>
    <g id="camera-2" data-name="camera" transform="translate(64.098 90.411)">
      <g id="Group_6318" data-name="Group 6318" transform="translate(0 36.54)">
        <path id="Path_3407" data-name="Path 3407" d="M9.237,38.2a1.235,1.235,0,0,0-.906-.375H7.209l-.255-.681a.93.93,0,0,0-.348-.423.892.892,0,0,0-.518-.178H3.525a.892.892,0,0,0-.518.178.93.93,0,0,0-.348.423l-.255.681H1.282a1.235,1.235,0,0,0-.906.375A1.235,1.235,0,0,0,0,39.1v4.486a1.235,1.235,0,0,0,.375.906,1.235,1.235,0,0,0,.906.376H8.331a1.282,1.282,0,0,0,1.282-1.282V39.1A1.235,1.235,0,0,0,9.237,38.2ZM6.391,42.931a2.16,2.16,0,0,1-1.585.658,2.16,2.16,0,0,1-1.585-.658,2.236,2.236,0,0,1,0-3.169A2.16,2.16,0,0,1,4.806,39.1a2.16,2.16,0,0,1,1.585.658,2.236,2.236,0,0,1,0,3.169Z" transform="translate(0 -36.54)" fill="#fff"/>
      </g>
    </g>
  </g>
</svg>
