<svg xmlns="http://www.w3.org/2000/svg" width="14.713" height="14.713" viewBox="0 0 14.713 14.713">
  <path id="cancel" d="M7.356,0a7.356,7.356,0,1,0,7.356,7.356A7.365,7.365,0,0,0,7.356,0Zm2.975,9.465a.306.306,0,0,1,0,.433l-.433.433a.307.307,0,0,1-.434,0L7.356,8.223,5.248,10.332a.307.307,0,0,1-.434,0L4.381,9.9a.306.306,0,0,1,0-.433L6.49,7.356,4.381,5.248a.306.306,0,0,1,0-.433l.433-.433a.307.307,0,0,1,.434,0L7.356,6.49,9.465,4.381a.307.307,0,0,1,.434,0l.433.433a.306.306,0,0,1,0,.433L8.223,7.356Z" fill="#fff"/>
</svg>
