<svg xmlns="http://www.w3.org/2000/svg" width="11" height="11" viewBox="0 0 11 11">
  <g id="navigation" transform="translate(-0.001)">
    <g id="Group_262" data-name="Group 262" transform="translate(0.001 0)">
      <path id="Path_46" data-name="Path 46" d="M10.784.041a.393.393,0,0,0-.352,0h0L.218,5.148a.393.393,0,0,0,.105.738l4.054.737.737,4.054a.393.393,0,0,0,.33.319A.384.384,0,0,0,5.5,11a.393.393,0,0,0,.352-.217L10.959.569A.393.393,0,0,0,10.784.041Z" transform="translate(-0.001 0)" fill="#4a92ff"/>
    </g>
  </g>
</svg>
