<svg xmlns="http://www.w3.org/2000/svg" width="15.662" height="16" viewBox="0 0 15.662 16">
  <path id="filter" d="M14.5,0H1.126a.628.628,0,0,0-.56.341A.637.637,0,0,0,.616,1l4.9,6.9.005.007a1.4,1.4,0,0,1,.275.831V14.37A.626.626,0,0,0,6.42,15a.644.644,0,0,0,.247-.049L9.42,13.9a.6.6,0,0,0,.41-.588V8.743a1.4,1.4,0,0,1,.275-.831l.005-.007L15.01,1a.636.636,0,0,0,.05-.663A.628.628,0,0,0,14.5,0ZM9.492,7.462a2.168,2.168,0,0,0-.423,1.282V13.22l-2.513.958V8.743a2.167,2.167,0,0,0-.423-1.282L1.377.761H14.248Zm0,0" transform="translate(0.019 0.5)" fill="none" stroke="#1e1e1e" stroke-width="1"/>
</svg>
