<svg xmlns="http://www.w3.org/2000/svg" width="14" height="14" viewBox="0 0 14 14">
  <path id="phone" d="M10.062,14a3.9,3.9,0,0,1-1.338-.239,14.27,14.27,0,0,1-5.182-3.3A14.269,14.269,0,0,1,.24,5.276a3.872,3.872,0,0,1-.2-1.9A3.971,3.971,0,0,1,2.083.466,3.9,3.9,0,0,1,3.949,0a.438.438,0,0,1,.428.346l.687,3.2a.438.438,0,0,1-.118.4L3.772,5.125a11.516,11.516,0,0,0,5.1,5.1l1.173-1.173a.438.438,0,0,1,.4-.118l3.2.687a.437.437,0,0,1,.346.428,3.9,3.9,0,0,1-.466,1.867,3.971,3.971,0,0,1-2.907,2.041A3.892,3.892,0,0,1,10.062,14ZM3.6.894A3.066,3.066,0,0,0,1.062,4.978a13.269,13.269,0,0,0,7.961,7.961A3.066,3.066,0,0,0,13.106,10.4L10.5,9.842,9.274,11.067a.437.437,0,0,1-.5.087A12.388,12.388,0,0,1,2.846,5.222a.437.437,0,0,1,.087-.5L4.158,3.5Z" fill="#e06287"/>
</svg>
