<svg xmlns="http://www.w3.org/2000/svg" width="29.881" height="26.846" viewBox="0 0 29.881 26.846">
  <g id="barbershop" transform="translate(0 -25.996)">
    <g id="Group_31" data-name="Group 31" transform="translate(0 25.996)">
      <g id="Group_30" data-name="Group 30" transform="translate(0 0)">
        <path id="Path_5" data-name="Path 5" d="M29.882,33.577c0-.013,0-.025,0-.038s0-.014,0-.021,0-.022-.005-.033,0-.017,0-.025,0-.017-.006-.025-.005-.021-.009-.032l-.007-.018c0-.012-.009-.025-.014-.037l-.007-.014c-.006-.013-.013-.026-.02-.038l0,0L27.2,28.758V26.58A.584.584,0,0,0,26.614,26H3.27a.584.584,0,0,0-.584.584v2.179L.08,33.292l0,0c-.007.012-.013.025-.019.038l-.007.014c-.005.012-.01.025-.014.037L.03,33.4c0,.01-.006.021-.009.032s0,.017-.006.025,0,.017,0,.025,0,.022-.005.033,0,.014,0,.021,0,.025,0,.038,0,0,0,.006v2.334a.584.584,0,0,0,.584.584h2.1V51.674h-.41a.584.584,0,0,0,0,1.167H27.608a.584.584,0,1,0,0-1.167H27.2V36.5h2.1a.584.584,0,0,0,.584-.584V33.583S29.882,33.579,29.882,33.577ZM28.29,33H15.526V29.5H26.276ZM3.854,27.163H26.03v1.167H3.854V27.163ZM3.608,29.5H14.358V33H1.594ZM1.169,35.334V34.166H14.358v1.167H1.169Zm9.688,6.847V40.586a1.167,1.167,0,0,1,2.334,0v.247Zm2.334,0v2.467l-2.334,1.348V43.528ZM11.44,51.675H3.854V36.5H5.187v.584a.584.584,0,1,0,1.167,0V36.5H7.689v.584a.584.584,0,1,0,1.167,0V36.5H11.44v1.825a2.339,2.339,0,0,0-1.751,2.26v7a2.339,2.339,0,0,0,1.751,2.26Zm.583-2.918a1.169,1.169,0,0,1-1.167-1.167v-.247l2.334-1.348v1.594a1.168,1.168,0,0,1-1.167,1.167h0Zm8.17,2.918H12.608V49.85a2.338,2.338,0,0,0,1.751-2.26v-7a2.338,2.338,0,0,0-1.751-2.26V36.5h2.584v.584a.584.584,0,1,0,1.167,0V36.5h1.334v.584a.584.584,0,1,0,1.167,0V36.5h1.334Zm5.836,0H21.362V47.006h.584a.584.584,0,0,0,0-1.167h-.584V41.17H26.03ZM26.03,40H21.362V36.5H26.03Zm2.684-4.669H15.526V34.166H28.715Z" transform="translate(-0.002 -25.996)" fill="#e06287"/>
        <path id="Path_6" data-name="Path 6" d="M.6,466H.584a.584.584,0,1,0,0,1.167H.6A.584.584,0,1,0,.6,466Z" transform="translate(0 -440.32)" fill="#e06287"/>
        <path id="Path_7" data-name="Path 7" d="M492.359,466h-.014a.584.584,0,1,0,0,1.167h.014a.584.584,0,0,0,0-1.167Z" transform="translate(-463.063 -440.321)" fill="#e06287"/>
      </g>
    </g>
  </g>
</svg>
