<svg id="hair" xmlns="http://www.w3.org/2000/svg" width="26.846" height="27" viewBox="0 0 26.846 27">
  <g id="Group_38" data-name="Group 38">
    <g id="Group_37" data-name="Group 37">
      <path id="Path_16" data-name="Path 16" d="M24.329,13.662H23.49a3.356,3.356,0,0,0-3.356-3.356H16.191L14.765,7.934a2.517,2.517,0,0,0-4.317,2.59l4.9,8.172h1.426v1.439h-2.9l-3.775-5.872H5.034V12.584H7.316L9.554,5.872H1.678V2.936a1.258,1.258,0,1,1,2.517,0v.419H5.872V2.936A2.936,2.936,0,0,0,0,2.936V26.846H11.745V25.168H10.067v-1.93L8,20.134H1.678V15.94H9.19l3.775,5.872h8.847v3.356H20.134v1.678H23.49V20.134H21.812V18.7h2.517a2.517,2.517,0,0,0,0-5.034ZM7.1,21.812l1.288,1.93v1.426H1.678V21.812ZM1.678,7.55H7.225L6.107,10.906H1.678Zm1.678,6.711H1.678V12.584H3.356Zm16.779-2.278a1.678,1.678,0,0,1,1.678,1.678H18.2L17.2,11.984Zm0,8.15H18.456V18.7h1.678Zm4.195-3.116H16.3L11.888,9.661a.839.839,0,0,1,.287-1.151h0a.824.824,0,0,1,.634-.095.839.839,0,0,1,.517.383l3.925,6.544h7.076a.839.839,0,0,1,0,1.678Z" fill="#e06287"/>
      <rect id="Rectangle_19" data-name="Rectangle 19" width="1" height="2" transform="translate(17 25)" fill="#e06287"/>
      <rect id="Rectangle_20" data-name="Rectangle 20" width="1" height="2" transform="translate(14 25)" fill="#e06287"/>
    </g>
  </g>
</svg>
