<svg xmlns="http://www.w3.org/2000/svg" width="22.429" height="26.846" viewBox="0 0 22.429 26.846">
  <g id="shaving" transform="translate(-24.435)">
    <path id="Path_17" data-name="Path 17" d="M24.435,23.132a3.948,3.948,0,0,0,.506,2.224l.082.125a2.978,2.978,0,0,0,1.96,1.309,3.151,3.151,0,0,0,.6.056,3.343,3.343,0,0,0,1.925-.618A70.094,70.094,0,0,0,46.245,9.486a3.307,3.307,0,0,0,.562-2.52,2.975,2.975,0,0,0-1.3-1.957l-.136-.089a3.194,3.194,0,0,0-4.344.869A63.692,63.692,0,0,1,29.288,18.357v-5.93l1.287-1.286a.882.882,0,0,0,.258-.624V2.793A2.8,2.8,0,0,0,28.04,0h-.811a2.8,2.8,0,0,0-2.793,2.793V23.132ZM27.228,1.764h.811a1.031,1.031,0,0,1,1.03,1.03v7.358l-1.287,1.286a.882.882,0,0,0-.258.624v7.684q-.656.5-1.326.979V2.793a1.031,1.031,0,0,1,1.029-1.03Zm17.578,6.7h0A68.337,68.337,0,0,1,28.484,24.788a1.537,1.537,0,0,1-1.167.269,1.233,1.233,0,0,1-.816-.54l-.082-.125a1.451,1.451,0,0,1,.408-1.946A65.463,65.463,0,0,0,42.463,6.808a1.488,1.488,0,0,1,1.207-.625A1.345,1.345,0,0,1,44.4,6.4l.136.09a1.23,1.23,0,0,1,.535.813A1.535,1.535,0,0,1,44.806,8.466Z" fill="#e06287"/>
    <path id="Path_18" data-name="Path 18" d="M58.458,246.511a.882.882,0,1,0,.624.258A.89.89,0,0,0,58.458,246.511Z" transform="translate(-30.145 -224.229)" fill="#e06287"/>
    <path id="Path_19" data-name="Path 19" d="M225.218,78.716a.882.882,0,1,0,.623.258A.889.889,0,0,0,225.218,78.716Z" transform="translate(-181.832 -71.601)" fill="#e06287"/>
  </g>
</svg>
