<svg xmlns="http://www.w3.org/2000/svg" width="26.847" height="26.846" viewBox="0 0 26.847 26.846">
  <g id="scissor" transform="translate(0 0.082)">
    <path id="Path_8" data-name="Path 8" d="M271.358,282.884a1.342,1.342,0,0,0,.949-2.291,1.375,1.375,0,0,0-1.9,0,1.342,1.342,0,0,0,.949,2.291Zm-.316-1.659a.447.447,0,1,1,.633.633.458.458,0,0,1-.633,0A.448.448,0,0,1,271.041,281.225Zm0,0" transform="translate(-257.934 -267.754)" fill="#e06287"/>
    <path id="Path_9" data-name="Path 9" d="M410.449,94.95a.448.448,0,0,0,.316-.131l4.027-4.027a.447.447,0,0,0-.633-.633l-4.027,4.027a.447.447,0,0,0,.316.764Zm0,0" transform="translate(-391.656 -86.084)" fill="#e06287"/>
    <path id="Path_10" data-name="Path 10" d="M360.449,211.817a.447.447,0,0,0,.316-.131l.895-.895a.447.447,0,0,0-.633-.633l-.895.895a.447.447,0,0,0,.316.764Zm0,0" transform="translate(-343.894 -200.714)" fill="#e06287"/>
    <path id="Path_11" data-name="Path 11" d="M71.79,479.91a1.79,1.79,0,1,0,1.79,1.79A1.79,1.79,0,0,0,71.79,479.91Zm0,2.685a.895.895,0,1,1,.895-.895A.895.895,0,0,1,71.79,482.595Zm0,0" transform="translate(-66.868 -458.516)" fill="#e06287"/>
    <path id="Path_12" data-name="Path 12" d="M452.161,483.49a1.79,1.79,0,1,0-1.79-1.79A1.79,1.79,0,0,0,452.161,483.49Zm0-2.685a.895.895,0,1,1-.895.895A.9.9,0,0,1,452.161,480.8Zm0,0" transform="translate(-430.219 -458.516)" fill="#e06287"/>
    <path id="Path_13" data-name="Path 13" d="M484.922,302.147a1.79,1.79,0,0,1-1.79-1.79.447.447,0,1,0-.895,0,1.79,1.79,0,0,1-1.79,1.79.447.447,0,1,0,0,.895,1.79,1.79,0,0,1,1.79,1.79.447.447,0,1,0,.895,0,1.79,1.79,0,0,1,1.79-1.79.447.447,0,0,0,0-.895Zm-2.237,1.2a2.7,2.7,0,0,0-.756-.756.756.756,0,0,1,1.512,0A2.705,2.705,0,0,0,482.685,303.351Zm0,0" transform="translate(-458.523 -286.57)" fill="#e06287"/>
    <path id="Path_14" data-name="Path 14" d="M.447,183.042a1.79,1.79,0,0,1,1.79,1.79.447.447,0,1,0,.895,0,1.79,1.79,0,0,1,1.79-1.79.447.447,0,1,0,0-.895,1.79,1.79,0,0,1-1.79-1.79.447.447,0,1,0-.895,0,1.79,1.79,0,0,1-1.79,1.79.447.447,0,1,0,0,.895Zm2.237-1.2a2.7,2.7,0,0,0,.756.756,2.7,2.7,0,0,0-.756.756,2.705,2.705,0,0,0-.756-.756A2.7,2.7,0,0,0,2.685,181.839Zm0,0" transform="translate(0 -171.939)" fill="#e06287"/>
    <path id="Path_15" data-name="Path 15" d="M39.486,15.3l-4.564,4.563A3.534,3.534,0,0,0,33.58,19.6a3.58,3.58,0,1,0,3.58,3.58,3.52,3.52,0,0,0-.06-.638l4.99-4.877,4.99,4.877a3.5,3.5,0,0,0-.06.638A3.58,3.58,0,1,0,50.6,19.6a3.53,3.53,0,0,0-1.342.262L44.7,15.309l8.471-9.743c1.972-2.464.042-5.42.023-5.45a.447.447,0,0,0-.32-.2.453.453,0,0,0-.358.116L42.093,9.716,31.672.037a.452.452,0,0,0-.358-.116.447.447,0,0,0-.32.2c-.02.03-1.948,2.985.035,5.464ZM36.3,22.08a.448.448,0,0,0-.12.432,2.685,2.685,0,1,1-2.6-2.013,2.656,2.656,0,0,1,1.232.3.448.448,0,0,0,.522-.081l4.738-4.737a3.161,3.161,0,0,0,.9.6l.472.462ZM49.367,20.8a2.653,2.653,0,0,1,1.232-.3A2.7,2.7,0,1,1,48,22.513a.447.447,0,0,0-.12-.432l-5.426-5.3a3.049,3.049,0,0,0,1.64-.805l4.748,4.747a.447.447,0,0,0,.523.083ZM52.7,1.084a3.673,3.673,0,0,1-.22,3.909L43.554,15.261A2.084,2.084,0,1,1,40.6,12.326Zm-21.22,0,9.954,9.245-1.461,1.356a3.023,3.023,0,0,0-.895,1.79L31.716,5.007a3.658,3.658,0,0,1-.234-3.926Zm0,0" transform="translate(-28.658)" fill="#e06287"/>
  </g>
</svg>
