<svg id="website" xmlns="http://www.w3.org/2000/svg" width="14" height="14" viewBox="0 0 14 14">
  <path id="Path_43" data-name="Path 43" d="M11.95,2.05a7,7,0,0,0-9.9,9.9,7,7,0,0,0,9.9-9.9Zm-.058,8.632A8.728,8.728,0,0,0,10.58,9.95a11.762,11.762,0,0,0,.35-2.512h2.179A6.092,6.092,0,0,1,11.891,10.682Zm-11-3.245H3.07A11.765,11.765,0,0,0,3.42,9.95a8.726,8.726,0,0,0-1.311.733A6.092,6.092,0,0,1,.891,7.437ZM2.108,3.318a8.724,8.724,0,0,0,1.311.733,11.763,11.763,0,0,0-.35,2.512H.891A6.092,6.092,0,0,1,2.108,3.318ZM9.861,2.154a5.916,5.916,0,0,0-.518-.812,6.146,6.146,0,0,1,1.968,1.312,7.846,7.846,0,0,1-.989.552A7.859,7.859,0,0,0,9.861,2.154ZM9.506,3.532A7.869,7.869,0,0,1,7,3.937a7.869,7.869,0,0,1-2.506-.406C5.053,1.939,5.978.875,7,.875S8.947,1.939,9.506,3.532ZM3.946,6.562a10.968,10.968,0,0,1,.3-2.191A8.745,8.745,0,0,0,7,4.813a8.745,8.745,0,0,0,2.755-.441,10.965,10.965,0,0,1,.3,2.191Zm6.108.875a10.968,10.968,0,0,1-.3,2.191,8.831,8.831,0,0,0-5.51,0,10.966,10.966,0,0,1-.3-2.191ZM4.139,2.154a7.868,7.868,0,0,0-.462,1.052,7.844,7.844,0,0,1-.989-.552A6.145,6.145,0,0,1,4.657,1.341,5.916,5.916,0,0,0,4.139,2.154Zm-.462,8.641a7.865,7.865,0,0,0,.462,1.052,5.916,5.916,0,0,0,.518.812,6.146,6.146,0,0,1-1.968-1.312A7.85,7.85,0,0,1,3.677,10.795Zm.816-.326a7.946,7.946,0,0,1,5.013,0C8.947,12.061,8.022,13.125,7,13.125S5.053,12.061,4.494,10.468Zm5.367,1.378a7.866,7.866,0,0,0,.462-1.052,7.85,7.85,0,0,1,.989.552,6.145,6.145,0,0,1-1.968,1.312A5.914,5.914,0,0,0,9.861,11.846ZM10.93,6.563a11.764,11.764,0,0,0-.35-2.512,8.723,8.723,0,0,0,1.311-.733,6.092,6.092,0,0,1,1.218,3.244Z" transform="translate(0 0)" fill="#e06287"/>
</svg>
